<svg width="224" height="26" viewBox="0 0 224 26" fill="none" xmlns="http://www.w3.org/2000/svg">
<path d="M9.67538 6.81195C12.3681 6.81195 14.8092 7.96117 16.533 9.82764L14.0919 12.2687C13.123 10.9405 11.5782 10.1143 9.67538 10.1143C6.30039 10.1143 4.0033 12.7707 4.0033 16.1457C4.0033 19.5206 6.30039 22.177 9.67538 22.177C11.5782 22.177 13.1217 21.3508 14.0919 20.0226L16.533 22.4637C14.8092 24.3301 12.3681 25.4794 9.67538 25.4794C4.54023 25.4807 0.340332 21.2795 0.340332 16.1457C0.340332 11.0118 4.54023 6.81195 9.67538 6.81195Z" fill="white"/>
<path d="M26.2234 10.1143C22.8484 10.1143 20.5513 12.7707 20.5513 16.1457C20.5513 19.5206 22.8484 22.177 26.2234 22.177C29.5983 22.177 31.8241 19.5556 31.8241 16.1457C31.8241 12.7357 29.6347 10.1143 26.2234 10.1143ZM26.2234 6.81195C31.3572 6.81195 35.5584 11.0118 35.5584 16.147C35.5584 21.2822 31.3585 25.4821 26.2234 25.4821C21.0882 25.4821 16.8883 21.2822 16.8883 16.147C16.8883 11.0118 21.0882 6.81195 26.2234 6.81195Z" fill="white"/>
<path d="M55.343 25.0845H51.7527V16.1815C51.7527 12.1242 49.9213 9.89843 46.6903 9.89843C43.4593 9.89843 41.8431 12.0879 41.8431 16.2178V25.1222L38.4318 25.0859V15.1776C38.4318 10.6184 41.5551 6.77643 47.0482 6.77643C49.13 6.77643 55.3417 7.20705 55.3417 15.1776V25.0859L55.343 25.0845Z" fill="white"/>
<path d="M56.7057 7.20593H60.475L65.8967 21.4595H66.0044L71.4262 7.20593H74.9088L68.0875 25.1574H63.5283L56.707 7.20593H56.7057Z" fill="white"/>
<path d="M84.6314 10.2941C81.9751 10.2941 79.9283 11.7662 79.211 14.136H89.9456C89.2633 11.7662 87.3242 10.2941 84.6314 10.2941ZM78.9944 17.079C79.3886 19.9507 81.5794 22.1765 84.6314 22.1765C86.5343 22.1765 88.0778 21.3502 89.048 20.022L91.4891 22.4631C89.7653 24.3296 87.3242 25.4788 84.6314 25.4788C79.4976 25.4788 75.4041 21.2789 75.4041 16.1438C75.4041 11.0086 79.4963 6.80872 84.6314 6.80872C89.7666 6.80872 93.7512 11.0086 93.7512 16.1438C93.7512 16.5031 93.7512 16.7184 93.7149 17.0777C91.5604 17.0413 89.6576 17.0413 87.5031 17.0413C84.6664 17.0413 81.8311 17.0413 78.9944 17.0777V17.079Z" fill="white"/>
<path d="M105.968 6.77533V10.9039C102.593 10.9039 100.223 12.9857 100.223 16.109V25.0848H96.6328V16.109C96.6328 10.2566 100.475 6.77399 105.968 6.77399V6.77533Z" fill="white"/>
<path d="M108.592 0.0258179H112.182V7.20642H117.064V10.2584H112.182V16.1822C112.182 19.5921 114.516 21.8543 117.927 21.8543V25.1579C112.793 25.1579 108.592 21.3523 108.592 16.1822V0.0258179Z" fill="white"/>
<path d="M159.289 9.73695C159.289 9.73695 161.479 6.9729 164.567 6.79258H164.998C169.485 6.79258 171.819 10.6695 171.819 14.5828V25.1384H168.229V15.4454C168.229 13.1833 168.086 10.3479 165.392 9.70061C165.105 9.62929 164.782 9.59296 164.494 9.59296C162.411 9.59296 160.652 11.3881 160.652 14.5828C160.617 14.5828 160.617 25.1384 160.617 25.1384H157.027V14.5115C157.027 11.6034 155.519 9.59296 153.258 9.59296H153.185C150.277 9.66428 149.416 11.7474 149.416 16.2353V25.1384H146.042V15.8396C146.042 8.94703 149.812 6.97155 152.792 6.75624C153.008 6.71991 153.187 6.71991 153.402 6.71991C157.351 6.71991 159.291 9.7356 159.291 9.7356L159.289 9.73695Z" fill="white"/>
<path d="M184.435 10.0249C181.061 10.0249 178.69 12.754 178.69 16.1277C178.69 19.5013 181.06 22.2317 184.435 22.2317C187.81 22.2317 190.324 19.539 190.324 16.1277C190.324 12.7163 187.846 10.0249 184.435 10.0249ZM184.435 6.7926C189.067 6.82894 193.77 9.55665 193.77 16.1277V25.1034H190.18V22.8063C190.145 22.8426 188.026 25.499 184.328 25.499H184.292C178.584 25.499 174.993 21.1552 174.993 16.0927C174.993 11.6048 177.938 6.79395 184.365 6.79395H184.436H184.435V6.7926Z" fill="white"/>
<path d="M196.007 0.00805664H199.596V7.18865H204.48V10.2407H199.596V16.1644C199.596 19.5744 201.93 21.8365 205.341 21.8365V25.1388C200.207 25.1388 196.007 21.3332 196.007 16.1631V0.00805664Z" fill="white"/>
<path d="M214.541 10.2757C211.884 10.2757 209.838 11.7479 209.121 14.1177H219.855C219.172 11.7479 217.234 10.2757 214.541 10.2757ZM208.904 17.0621C209.3 19.9338 211.489 22.1595 214.541 22.1595C216.444 22.1595 217.988 21.3333 218.957 20.0051L221.398 22.4462C219.674 24.3126 217.233 25.4618 214.541 25.4618C209.406 25.4618 205.314 21.2619 205.314 16.1268C205.314 10.9916 209.406 6.79175 214.541 6.79175C219.677 6.79175 223.66 10.9916 223.66 16.1268C223.66 16.4861 223.66 16.7014 223.623 17.0607C221.47 17.0244 219.567 17.0244 217.413 17.0244C214.578 17.0244 211.741 17.0244 208.904 17.0607V17.0621Z" fill="white"/>
<path d="M138.716 9.82764C137.105 9.80207 135.494 9.7765 133.885 9.74959L137.452 2.35906C137.983 1.26232 137.175 -0.0106977 135.956 6.78157e-05L130.412 0.051204C129.685 0.0579325 129.049 0.541035 128.847 1.23945L125.269 13.609C124.963 14.6667 125.762 15.7218 126.865 15.711L128.358 15.6962C127.742 18.1817 127.127 20.6672 126.511 23.154C126.096 24.8267 128.208 25.9302 129.345 24.6329C132.872 20.608 136.4 16.5817 139.927 12.5567C140.85 11.503 140.118 9.85052 138.716 9.82764Z" fill="url(#paint0_linear_855_3567)"/>
<path opacity="0.5" d="M133.886 9.74933C133.403 10.7155 132.921 11.6804 132.438 12.6466C133.318 11.6871 134.198 10.7276 135.078 9.76817C134.681 9.76144 134.283 9.75606 133.886 9.74933Z" fill="url(#paint1_linear_855_3567)"/>
<defs>
<linearGradient id="paint0_linear_855_3567" x1="131.003" y1="8.69322" x2="136.342" y2="28.3874" gradientUnits="userSpaceOnUse">
<stop offset="0.07" stop-color="#05F280"/>
<stop offset="0.28" stop-color="#00FF84" stop-opacity="0.85"/>
<stop offset="0.73" stop-color="#00FF84" stop-opacity="0.46"/>
<stop offset="0.8" stop-color="#00FF84" stop-opacity="0.4"/>
</linearGradient>
<linearGradient id="paint1_linear_855_3567" x1="132.911" y1="10.6415" x2="134.075" y2="11.4207" gradientUnits="userSpaceOnUse">
<stop offset="0.1" stop-opacity="0.2"/>
<stop offset="0.97" stop-opacity="0"/>
</linearGradient>
</defs>
</svg>
