<svg width="138" height="35" viewBox="0 0 138 35" fill="none" xmlns="http://www.w3.org/2000/svg">
<path fill-rule="evenodd" clip-rule="evenodd" d="M0 0H3.9494L3.92985 34.3932L0 34.4128V0ZM110.583 0L110.564 4.56096H106.614L106.603 2.32942C106.599 1.10011 106.603 0.0743853 106.614 0.0469803C106.626 0.0117454 107.064 0 110.583 0ZM9.10708 10.8837H13.0604L13.0721 19.1365C13.0839 26.7511 13.0917 27.4128 13.1503 27.7181C13.1894 27.9021 13.2637 28.1997 13.3224 28.3837C13.3771 28.5677 13.4866 28.8496 13.5609 29.0101C13.6391 29.1706 13.8033 29.4368 13.9207 29.5973C14.0419 29.7578 14.2257 29.9692 14.3351 30.0632C14.4407 30.1572 14.6323 30.3098 14.7614 30.3999C14.8904 30.4939 15.1798 30.6583 15.4066 30.7679C15.6334 30.8736 15.9736 31.0067 16.1691 31.0615C16.3607 31.1203 16.7126 31.1907 16.9511 31.222C17.1858 31.2534 17.6276 31.2808 17.9287 31.2808C18.2298 31.2808 18.6951 31.2534 18.9649 31.222C19.2347 31.1907 19.6219 31.1202 19.8252 31.0654C20.0285 31.0106 20.3375 30.9088 20.5095 30.8462C20.6816 30.7796 20.9201 30.6739 21.0374 30.6152C21.1547 30.5565 21.4089 30.3999 21.6044 30.2746C21.796 30.1454 22.0697 29.9379 22.2105 29.8087C22.3513 29.6795 22.5468 29.4877 22.6445 29.382C22.7462 29.2724 22.93 29.0453 23.0512 28.873C23.1763 28.7008 23.3718 28.3641 23.4852 28.1292C23.5986 27.8943 23.7551 27.4871 23.8294 27.2287C23.9036 26.9704 23.9936 26.5475 24.0249 26.2892C24.0796 25.8742 24.0874 24.9424 24.0874 10.8837H28.0759L28.0564 34.3932H24.107L24.0952 32.8546C24.0913 32.0129 24.0757 31.3199 24.0561 31.3199C24.0405 31.316 23.8606 31.5431 23.6534 31.8171C23.4461 32.0912 23.102 32.4944 22.8909 32.7058C22.6797 32.9211 22.3708 33.203 22.2105 33.3283C22.0502 33.4575 21.7843 33.6493 21.6239 33.755C21.4636 33.8607 21.1 34.0604 20.8223 34.1974C20.5408 34.3345 20.1458 34.4989 19.9425 34.5654C19.7392 34.632 19.4185 34.722 19.2269 34.7651C19.0392 34.8082 18.7147 34.863 18.5035 34.8865C18.2963 34.91 18.0695 34.9452 18.0069 34.9648C17.9404 34.9843 17.5729 35 17.1858 35C16.7986 35 16.4272 34.9843 16.3646 34.9648C16.2981 34.9413 16.0361 34.91 15.778 34.8865C15.52 34.863 15.0507 34.7925 14.7301 34.726C14.4134 34.6633 13.9402 34.538 13.6743 34.448C13.4123 34.3579 13.0369 34.2092 12.8453 34.1113C12.6498 34.0173 12.3174 33.8216 12.1024 33.6767C11.8443 33.5084 11.5588 33.2657 11.2617 32.9681C11.0075 32.7097 10.7064 32.3613 10.5734 32.1616C10.4405 31.9659 10.2528 31.6605 10.155 31.4765C10.0573 31.2925 9.92042 31.0106 9.85004 30.8501C9.78356 30.6896 9.68581 30.4312 9.63497 30.2824C9.58023 30.1337 9.48638 29.797 9.41991 29.5386C9.35734 29.2802 9.2674 28.8026 9.13445 27.8943L9.10708 10.8837ZM123.952 10.6292C124.461 10.6409 125.129 10.6723 125.438 10.7075C125.751 10.7388 126.209 10.8015 126.455 10.8445C126.705 10.8915 127.081 10.9698 127.296 11.0246C127.511 11.0794 127.875 11.1851 128.097 11.2634C128.324 11.3378 128.766 11.5218 129.075 11.6745C129.388 11.8233 129.83 12.0621 130.053 12.203C130.279 12.344 130.596 12.5632 130.756 12.6846C130.921 12.8098 131.187 13.0291 131.351 13.1779C131.515 13.3266 131.769 13.5811 131.918 13.7416C132.062 13.9021 132.297 14.1918 132.442 14.3876C132.586 14.5833 132.802 14.8965 132.919 15.0923C133.036 15.288 133.212 15.6012 133.31 15.797C133.408 15.9927 133.548 16.2981 133.623 16.4821C133.697 16.6661 133.83 17.0341 133.916 17.3043C134.002 17.5744 134.119 18.005 134.178 18.2634C134.237 18.5218 134.327 18.9799 134.373 19.2813C134.424 19.5828 134.499 20.0839 134.538 20.3971C134.592 20.8551 134.608 21.2466 134.604 22.4329C134.604 23.2394 134.581 24.316 134.553 24.821C134.53 25.3261 134.502 26.2069 134.502 26.7785C134.495 27.6985 134.502 27.8591 134.577 28.1879C134.62 28.3915 134.718 28.693 134.792 28.8535C134.866 29.014 135.011 29.2763 135.109 29.429C135.21 29.5856 135.406 29.8244 135.539 29.9614C135.672 30.0945 135.906 30.2864 136.055 30.3842C136.207 30.4821 136.497 30.6309 136.7 30.7092C136.907 30.7914 137.079 30.8619 137.083 30.8619C137.087 30.8658 136.943 31.5117 136.759 32.2987C136.579 33.0856 136.403 33.8451 136.368 33.9899C136.336 34.1387 136.293 34.2562 136.27 34.2562C136.25 34.2562 136.071 34.2013 135.871 34.1348C135.672 34.0722 135.324 33.9195 135.097 33.7981C134.874 33.6807 134.538 33.481 134.354 33.3557C134.174 33.2304 133.857 32.9877 133.65 32.8154C133.447 32.6471 133.134 32.3496 132.954 32.1577C132.774 31.9659 132.516 31.6644 132.387 31.4843C132.254 31.3082 132.074 31.0419 131.984 30.8971C131.828 30.6426 131.82 30.6348 131.652 30.623C131.531 30.6152 131.46 30.6348 131.406 30.6818C131.366 30.7209 131.108 31.0145 130.835 31.3395C130.565 31.6605 130.174 32.0833 129.97 32.2752C129.771 32.4631 129.439 32.7489 129.231 32.9016C129.028 33.0582 128.684 33.2892 128.469 33.4144C128.254 33.5397 127.921 33.7198 127.726 33.8098C127.534 33.8999 127.218 34.0291 127.022 34.0956C126.83 34.1661 126.459 34.264 126.201 34.3149C125.943 34.3658 125.462 34.4284 125.126 34.4519C124.699 34.4832 124.328 34.4832 123.866 34.4519C123.507 34.4323 122.987 34.3775 122.713 34.3345C122.439 34.2914 122.083 34.217 121.919 34.1739C121.759 34.1309 121.442 34.033 121.215 33.9586C120.992 33.8842 120.57 33.7081 120.277 33.5671C119.987 33.4262 119.6 33.2187 119.417 33.1091C119.237 32.9994 118.908 32.7763 118.693 32.6158C118.478 32.4553 118.114 32.1381 117.88 31.9111C117.645 31.684 117.328 31.3395 117.172 31.1437C117.016 30.948 116.769 30.6152 116.625 30.3999C116.48 30.1846 116.234 29.7422 116.077 29.4211C115.917 29.0962 115.706 28.5873 115.608 28.2858C115.506 27.9843 115.373 27.4832 115.311 27.17C115.248 26.8568 115.178 26.3635 115.154 26.0738C115.127 25.7606 115.119 25.33 115.135 25.0168C115.15 24.7271 115.201 24.2416 115.256 23.9402C115.307 23.6387 115.401 23.2081 115.463 22.981C115.53 22.7539 115.631 22.429 115.698 22.2567C115.76 22.0845 115.862 21.8378 115.921 21.7086C115.975 21.5794 116.105 21.3328 116.202 21.1605C116.3 20.9883 116.507 20.6711 116.66 20.4597C116.812 20.2444 117.109 19.8881 117.325 19.6611C117.54 19.434 117.849 19.1443 118.009 19.0151C118.173 18.8859 118.443 18.6862 118.615 18.5727C118.787 18.4631 119.115 18.2673 119.338 18.146C119.565 18.0246 119.925 17.8484 120.14 17.7545C120.355 17.6644 120.707 17.5352 120.922 17.4687C121.137 17.4021 121.524 17.3003 121.782 17.2494C122.04 17.1946 122.482 17.1202 122.76 17.085C123.124 17.0341 123.561 17.0145 124.285 17.0145C125.075 17.0145 125.388 17.0263 125.673 17.0772C125.88 17.1163 126.205 17.1907 126.396 17.2455C126.592 17.3043 126.917 17.4217 127.12 17.5117C127.327 17.6018 127.691 17.7897 127.933 17.9307C128.176 18.0716 128.535 18.2987 128.735 18.4396C128.95 18.5884 129.325 18.9211 129.665 19.2617C129.978 19.5749 130.354 19.9939 130.506 20.1896C130.733 20.495 130.796 20.5537 130.885 20.5537C130.96 20.5537 130.991 20.5341 130.991 20.4832C130.991 20.448 130.964 20.2601 130.932 20.0643C130.897 19.8686 130.827 19.5436 130.772 19.34C130.721 19.1365 130.612 18.7724 130.537 18.5375C130.459 18.3026 130.315 17.9307 130.213 17.7153C130.111 17.5 129.947 17.1907 129.841 17.0302C129.736 16.8697 129.583 16.6465 129.497 16.5408C129.411 16.4312 129.235 16.2315 129.102 16.0945C128.969 15.9575 128.754 15.7539 128.625 15.6482C128.496 15.5386 128.246 15.3585 128.07 15.2411C127.894 15.1275 127.613 14.967 127.444 14.8809C127.276 14.7987 126.975 14.6695 126.768 14.5912C126.565 14.5168 126.205 14.4111 125.966 14.3523C125.732 14.2975 125.309 14.2271 125.028 14.1918C124.727 14.1566 124.179 14.1331 123.679 14.1331C123.174 14.1331 122.631 14.1566 122.31 14.1958C122.021 14.2271 121.583 14.2975 121.333 14.3523C121.086 14.4072 120.699 14.5129 120.472 14.5833C120.249 14.6577 119.827 14.8378 119.534 14.9827C119.245 15.1314 118.877 15.3468 118.721 15.4642C118.509 15.6208 118.416 15.6678 118.38 15.6404C118.349 15.6208 117.868 15.014 117.309 14.2975C116.75 13.585 116.288 12.9782 116.288 12.9586C116.288 12.939 116.445 12.8098 116.632 12.6728C116.82 12.5397 117.043 12.3831 117.129 12.3283C117.215 12.2735 117.45 12.1365 117.649 12.0229C117.849 11.9133 118.181 11.745 118.392 11.651C118.603 11.557 118.947 11.4161 119.162 11.3417C119.377 11.2634 119.749 11.1499 119.984 11.0833C120.222 11.0207 120.644 10.9228 120.922 10.868C121.204 10.8171 121.606 10.7506 121.821 10.7271C122.036 10.7036 122.4 10.6683 122.623 10.6488C122.85 10.6292 123.448 10.6214 123.952 10.6292ZM122.76 20.6946C122.502 20.7494 122.134 20.8551 121.939 20.9256C121.747 20.9961 121.446 21.1214 121.274 21.2075C121.102 21.2975 120.805 21.4737 120.609 21.6029C120.418 21.7282 120.124 21.9709 119.956 22.1353C119.788 22.2998 119.546 22.5777 119.413 22.7539C119.284 22.934 119.108 23.2198 119.026 23.3921C118.943 23.5643 118.826 23.8814 118.767 24.0968C118.666 24.4648 118.662 24.5392 118.658 25.33C118.654 26.0777 118.666 26.2187 118.748 26.5828C118.799 26.8098 118.889 27.127 118.947 27.2875C119.006 27.448 119.123 27.722 119.209 27.8943C119.291 28.0666 119.463 28.3641 119.593 28.5598C119.729 28.7713 119.991 29.0766 120.238 29.3233C120.465 29.5503 120.781 29.8283 120.942 29.9379C121.106 30.0475 121.423 30.2315 121.645 30.3451C121.872 30.4586 122.208 30.5996 122.388 30.6622C122.572 30.7248 122.916 30.811 123.151 30.8619C123.534 30.9362 123.698 30.948 124.617 30.948C125.517 30.948 125.72 30.9362 126.142 30.8579C126.412 30.811 126.807 30.717 127.022 30.6505C127.237 30.5839 127.609 30.4351 127.843 30.3216C128.082 30.2081 128.418 30.0201 128.594 29.9066C128.77 29.7892 129.024 29.5973 129.161 29.4799C129.298 29.3624 129.509 29.151 129.634 29.0101C129.759 28.8691 129.931 28.6499 130.017 28.5207C130.103 28.3915 130.244 28.1527 130.326 27.9922C130.404 27.8317 130.518 27.5576 130.577 27.3854C130.631 27.2131 130.713 26.9038 130.76 26.7002C130.803 26.4966 130.85 26.1443 130.862 25.9172C130.878 25.6628 130.87 25.3809 130.839 25.1734C130.811 24.9894 130.745 24.6918 130.694 24.5078C130.639 24.3238 130.526 24.0263 130.44 23.8423C130.354 23.6583 130.229 23.4195 130.162 23.3138C130.092 23.2041 129.947 23.0045 129.837 22.8635C129.724 22.7226 129.478 22.4603 129.286 22.2724C129.095 22.0884 128.782 21.8339 128.586 21.7008C128.395 21.5716 128.058 21.3758 127.843 21.2662C127.628 21.1566 127.311 21.0157 127.139 20.9491C126.967 20.8786 126.651 20.7808 126.436 20.726C126.22 20.6711 125.88 20.6007 125.673 20.5694C125.47 20.538 125.04 20.5067 124.715 20.495C124.336 20.4832 123.972 20.4989 123.679 20.5341C123.432 20.5654 123.018 20.6359 122.76 20.6946ZM43.7132 10.7466C44.2215 10.7545 44.5461 10.7858 44.9645 10.8602C45.2773 10.915 45.7075 11.0089 45.9225 11.0716C46.1376 11.1342 46.4661 11.2399 46.6459 11.3104C46.8297 11.3848 47.1386 11.5218 47.3302 11.6158C47.5257 11.7136 47.8151 11.882 47.9754 11.9916C48.1397 12.0973 48.4173 12.3126 48.6011 12.4653C48.781 12.618 49.0508 12.8842 49.1994 13.0565C49.3479 13.2287 49.5552 13.5028 49.6608 13.6633C49.7703 13.8238 49.9384 14.1214 50.0401 14.3171C50.1417 14.5168 50.2356 14.6812 50.2434 14.6812C50.2551 14.6812 50.3451 14.5833 50.4428 14.4581C50.5406 14.3328 50.7517 14.0822 50.9121 13.9021C51.0724 13.7181 51.3696 13.4206 51.5729 13.2405C51.7802 13.0565 52.1125 12.7824 52.3159 12.6258C52.5231 12.4692 52.8125 12.2657 52.9611 12.1678C53.1136 12.0738 53.3951 11.9055 53.5867 11.7959C53.7822 11.6902 54.1068 11.5257 54.3101 11.4318C54.5174 11.3417 54.9123 11.189 55.1899 11.0951C55.4715 11.005 55.886 10.8876 56.1089 10.8445C56.3356 10.7975 56.7501 10.7506 57.0278 10.7388C57.3093 10.7271 57.7746 10.7349 58.064 10.7623C58.3573 10.7858 58.7952 10.8406 59.0416 10.8876C59.2918 10.9306 59.6868 11.0168 59.9214 11.0794C60.1599 11.1421 60.4688 11.2399 60.6057 11.2987C60.7465 11.3535 60.985 11.4631 61.1336 11.5375C61.2861 11.6158 61.5324 11.7567 61.681 11.8507C61.8335 11.9485 62.0525 12.1091 62.1698 12.2069C62.291 12.3048 62.4787 12.4732 62.596 12.5828C62.7094 12.6924 62.8854 12.8881 62.991 13.0173C63.0926 13.1465 63.2373 13.3384 63.3116 13.448C63.3859 13.5537 63.5462 13.8199 63.6635 14.0352C63.7769 14.2506 63.9373 14.5755 64.0155 14.7595C64.0937 14.9435 64.1914 15.198 64.2344 15.3272C64.2814 15.4564 64.3596 15.7383 64.4143 15.9536C64.4691 16.1689 64.5473 16.5565 64.5903 16.8149C64.6333 17.0733 64.688 17.5392 64.7115 17.8524C64.7428 18.2556 64.7545 20.7416 64.7311 34.3932L60.8012 34.4128L60.7777 18.0677L60.6917 17.6175C60.6448 17.3708 60.551 17.0106 60.4845 16.8149C60.4219 16.6191 60.2968 16.3294 60.2108 16.1689C60.1208 16.0084 59.9683 15.7696 59.8706 15.6404C59.7689 15.5151 59.5734 15.3154 59.4326 15.2019C59.2957 15.0884 59.0846 14.9435 58.9634 14.8809C58.8461 14.8182 58.6075 14.7164 58.4355 14.6616C58.2634 14.6029 57.9936 14.5324 57.8294 14.5011C57.6691 14.4698 57.3171 14.4346 57.0473 14.4228C56.7697 14.4072 56.3669 14.4189 56.1089 14.4424C55.8625 14.4698 55.4324 14.5403 55.1508 14.6029C54.8732 14.6616 54.4939 14.7673 54.3101 14.8339C54.1302 14.9005 53.8291 15.0296 53.6454 15.1236C53.4655 15.2176 53.1839 15.3781 53.0236 15.4877C52.8633 15.5934 52.5818 15.8205 52.4019 15.9927C52.222 16.165 51.9678 16.4469 51.8388 16.6191C51.7098 16.7914 51.526 17.0889 51.4321 17.2847C51.3383 17.4804 51.2132 17.8132 51.045 18.42L51.0059 34.3932H47.0565L47.037 26.1521C47.0174 18.561 47.0096 17.8837 46.947 17.5783C46.9118 17.3943 46.8297 17.0811 46.7632 16.8814C46.7007 16.6857 46.6029 16.4273 46.5443 16.3138C46.4895 16.2041 46.3683 15.9966 46.2745 15.8557C46.1845 15.7148 46.0125 15.5073 45.8991 15.3898C45.7818 15.2724 45.6097 15.1236 45.5119 15.057C45.4181 14.9944 45.2187 14.8809 45.074 14.8104C44.9293 14.7399 44.6399 14.6381 44.4288 14.5833C44.2176 14.5285 43.8892 14.4659 43.6937 14.4463C43.5021 14.4267 43.197 14.4072 43.0211 14.4072C42.8451 14.4072 42.5284 14.4267 42.3172 14.4502C42.1061 14.4698 41.7581 14.5246 41.543 14.5677C41.3279 14.6107 40.9525 14.7164 40.7023 14.7947C40.4559 14.877 40.104 15.0218 39.9202 15.1119C39.7403 15.2058 39.5175 15.3233 39.4314 15.382C39.3454 15.4368 39.1343 15.5895 38.9622 15.7226C38.7901 15.8518 38.5438 16.0828 38.4108 16.2315C38.2818 16.3803 38.0902 16.623 37.9885 16.7757C37.883 16.9245 37.7539 17.1477 37.6953 17.2651C37.6366 17.3826 37.5506 17.594 37.5037 17.7349C37.4567 17.8758 37.3903 18.1107 37.3512 18.2634C37.2925 18.514 37.2847 19.1795 37.2417 34.3932L33.3118 34.4128V11.3143H36.9875V12.7629C36.9875 13.5576 37.0031 14.2114 37.0188 14.2114C37.0344 14.2153 37.1908 14.0509 37.3668 13.8512C37.5428 13.6516 37.8047 13.3736 37.9533 13.2327C38.1019 13.0917 38.3717 12.849 38.5516 12.7002C38.7354 12.5475 39.0873 12.2813 39.3337 12.1091C39.5839 11.9329 39.9476 11.7019 40.147 11.5923C40.3464 11.4827 40.6202 11.3456 40.7531 11.2908C40.8861 11.2321 41.1481 11.1342 41.3279 11.0755C41.5117 11.0129 41.8363 10.9267 42.0513 10.8798C42.2664 10.8367 42.5753 10.7858 42.7356 10.7662C42.8999 10.7466 43.3378 10.7388 43.7132 10.7466ZM80.1572 10.731C80.4074 10.7271 80.7946 10.7466 81.0174 10.7662C81.2442 10.7897 81.6587 10.8523 81.9364 10.9072C82.2179 10.962 82.6754 11.0833 82.953 11.1773C83.2346 11.2713 83.6139 11.4161 83.7938 11.5022C83.9775 11.5884 84.2669 11.7411 84.4389 11.8428C84.611 11.9446 84.8573 12.1091 84.9864 12.2069C85.1154 12.3048 85.354 12.5123 85.5104 12.665C85.6707 12.8138 85.9014 13.0604 86.0226 13.2131C86.1477 13.3619 86.3276 13.6085 86.4254 13.7612C86.5231 13.91 86.6717 14.1801 86.7617 14.3563C86.8516 14.5364 86.9376 14.6812 86.9533 14.6812C86.9689 14.6773 87.0706 14.5598 87.1762 14.415C87.2856 14.2741 87.5594 13.9609 87.7822 13.726C88.009 13.4911 88.361 13.1583 88.5643 12.9899C88.7716 12.8177 89.0766 12.5749 89.2486 12.4536C89.4207 12.3322 89.7218 12.1326 89.9134 12.0112C90.1089 11.8937 90.4295 11.7136 90.629 11.6119C90.8284 11.514 91.1256 11.377 91.2937 11.3104C91.4618 11.2439 91.7473 11.1381 91.9272 11.0755C92.1109 11.0129 92.4707 10.915 92.7288 10.8602C93.0338 10.7936 93.3857 10.7506 93.7259 10.7388C94.0192 10.7271 94.4884 10.7388 94.7817 10.7623C95.075 10.7897 95.5481 10.8523 95.8375 10.9072C96.1307 10.962 96.5179 11.0481 96.6977 11.099C96.8815 11.1499 97.1513 11.236 97.296 11.2908C97.4407 11.3496 97.6792 11.4513 97.8239 11.5257C97.9686 11.5962 98.2462 11.7645 98.4378 11.8937C98.6333 12.0229 98.9149 12.2383 99.0674 12.3753C99.2199 12.5123 99.4467 12.7394 99.5718 12.8803C99.6969 13.0213 99.9081 13.3031 100.045 13.5067C100.178 13.7103 100.381 14.0626 100.495 14.2897C100.608 14.5168 100.757 14.8496 100.827 15.0336C100.897 15.2176 101.007 15.5621 101.073 15.797C101.14 16.0319 101.23 16.439 101.273 16.6974C101.316 16.9558 101.371 17.3708 101.402 17.6175C101.441 17.9698 101.449 19.8373 101.449 34.3932H97.4993L97.4798 26.1521C97.4602 18.8389 97.4524 17.8798 97.3977 17.6175C97.3625 17.4569 97.3116 17.2455 97.2882 17.1477C97.2608 17.0498 97.2022 16.8579 97.1513 16.717C97.1005 16.5761 97.0145 16.3647 96.9519 16.2472C96.8932 16.1298 96.772 15.9262 96.6821 15.797C96.5882 15.6678 96.3927 15.4485 96.2441 15.3076C96.0682 15.1393 95.8531 14.9905 95.6224 14.8691C95.4308 14.7713 95.1062 14.6421 94.899 14.5872C94.6957 14.5324 94.3594 14.4698 94.1482 14.4463C93.9371 14.4267 93.6203 14.4072 93.4444 14.4072C93.2684 14.4072 92.9595 14.4267 92.7601 14.4463C92.5606 14.4698 92.2165 14.5207 91.9976 14.5677C91.7786 14.6107 91.3954 14.7164 91.1451 14.7947C90.8988 14.877 90.5468 15.0218 90.363 15.1119C90.1832 15.2058 89.8821 15.3781 89.6983 15.4994C89.5184 15.6208 89.2095 15.8753 89.014 16.071C88.8185 16.2668 88.5604 16.5721 88.4392 16.7562C88.318 16.9402 88.1576 17.222 88.0834 17.3826C88.0091 17.5431 87.9191 17.7897 87.88 17.9307C87.8448 18.0716 87.7979 18.2634 87.7744 18.3613C87.7431 18.4866 87.7236 20.8865 87.6845 34.3932L83.7546 34.4128V26.4732C83.7546 19.7511 83.7468 18.4631 83.6999 18.0481C83.6686 17.778 83.5982 17.3904 83.5474 17.1868C83.4966 16.9832 83.4105 16.7092 83.3597 16.58C83.3089 16.4508 83.1876 16.2041 83.0899 16.0358C82.9921 15.8596 82.7966 15.6012 82.6402 15.4446C82.4916 15.288 82.2531 15.0884 82.1123 14.9983C81.9755 14.9083 81.7291 14.783 81.5649 14.7243C81.4046 14.6616 81.1582 14.5833 81.0174 14.5481C80.8806 14.5168 80.6069 14.4698 80.4113 14.4463C80.2197 14.4267 79.9186 14.4072 79.7466 14.4072C79.5745 14.4072 79.25 14.4267 79.0232 14.4463C78.8003 14.4698 78.4132 14.5324 78.1629 14.5872C77.9166 14.6381 77.5725 14.7282 77.4004 14.783C77.2284 14.8417 76.9038 14.9787 76.677 15.0884C76.4541 15.2019 76.1374 15.3781 75.9732 15.4838C75.8128 15.5895 75.5039 15.8557 75.2849 16.071C75.0699 16.2864 74.7962 16.6035 74.6828 16.7757C74.5694 16.948 74.413 17.222 74.3387 17.3826C74.2644 17.5431 74.1588 17.8445 73.9985 18.42L73.9593 34.3932H70.01L69.9904 11.3143H73.6661V12.7433C73.6661 13.726 73.6817 14.1801 73.7091 14.1997C73.7365 14.2192 73.8029 14.1683 73.8733 14.0744C73.9398 13.9883 74.2057 13.6985 74.4677 13.4323C74.7258 13.17 75.1246 12.802 75.3475 12.618C75.5743 12.4379 75.9692 12.1443 76.2273 11.972C76.4854 11.7998 76.9077 11.557 77.1658 11.4318C77.4239 11.3065 77.7954 11.1538 77.987 11.0873C78.1825 11.0207 78.5148 10.9306 78.7299 10.8876C78.945 10.8406 79.2539 10.7897 79.4142 10.7701C79.5784 10.7506 79.9108 10.7349 80.1572 10.731ZM106.591 11.3143H110.579L110.56 34.3932H106.61L106.591 11.3143Z" fill="white"/>
</svg>
