<svg width="62" height="44" viewBox="0 0 62 44" fill="none" xmlns="http://www.w3.org/2000/svg">
<path d="M4.77054 0C1.91202 0 0 1.06635 0 4.28401V39.073C0 42.293 1.91202 43.357 4.77054 43.357C7.62907 43.357 9.54109 42.2907 9.54109 39.073V24.4887C9.54109 24.3886 9.46023 24.3095 9.35797 24.3095H5.79077C5.68851 24.3095 5.60765 24.3886 5.60765 24.4887V39.0521C5.60765 39.8576 5.23428 40.0951 4.77292 40.0951C4.31156 40.0951 3.9382 39.8553 3.9382 39.0521V4.3073C3.9382 3.50172 4.31156 3.26423 4.77292 3.26423C5.23428 3.26423 5.60765 3.50404 5.60765 4.3073V17.7391C5.60765 17.8392 5.68851 17.9184 5.79077 17.9184H9.35797C9.46023 17.9184 9.54109 17.8392 9.54109 17.7391V4.28401C9.53871 1.06635 7.62669 0 4.77054 0Z" fill="white"/>
<path d="M15.6267 0C12.7706 0 10.8586 1.06635 10.8586 4.28634V39.0311C10.8586 42.2511 12.7706 43.3174 15.6291 43.3174C18.4876 43.3174 20.3997 42.2511 20.3997 39.0311V4.28634C20.3973 1.06635 18.4853 0 15.6267 0ZM16.4638 39.0101C16.4638 39.8157 16.0905 40.0532 15.6291 40.0532C15.1678 40.0532 14.7944 39.8134 14.7944 39.0101V4.3073C14.7944 3.50172 15.1678 3.26423 15.6291 3.26423C16.0905 3.26423 16.4638 3.50404 16.4638 4.3073V39.0101Z" fill="white"/>
<path d="M30.0287 24.2093C30.7565 23.576 31.1893 22.6145 31.1893 21.2222V4.52383C31.1893 1.43421 30.5305 0.237483 27.2986 0.237483H21.9003C21.798 0.237483 21.7172 0.318973 21.7172 0.41676V42.896C21.7172 42.9938 21.798 43.0753 21.9003 43.0753H25.4675C25.5674 43.0753 25.6506 42.9938 25.6506 42.896V25.448C25.6506 25.3479 25.7315 25.2687 25.8337 25.2687H26.6233C26.7184 25.2687 26.7992 25.3409 26.8064 25.4363L28.0787 42.91C28.0858 43.0031 28.1643 43.0776 28.2618 43.0776H31.3867C31.4937 43.0776 31.5793 42.9868 31.5698 42.882L29.9669 24.3583C29.9622 24.3025 29.9859 24.2466 30.0287 24.2093ZM27.3438 21.441C27.3438 22.2466 27.1227 22.5074 26.3759 22.5074H25.8337C25.7338 22.5074 25.6506 22.4259 25.6506 22.3281V3.66004C25.6506 3.56225 25.7315 3.48076 25.8337 3.48076H26.3759C27.1227 3.48076 27.3438 3.74153 27.3438 4.54711V21.441Z" fill="white"/>
<path d="M41.1037 0.239812H34.64C34.5425 0.239812 34.4616 0.314316 34.4568 0.412104L32.4735 42.8914C32.4687 42.9938 32.552 43.08 32.6566 43.08H36.0906C36.1881 43.08 36.2714 43.0031 36.2737 42.9077L36.7922 27.8601C36.7946 27.7623 36.8778 27.6878 36.9753 27.6878H38.7708C38.8683 27.6878 38.9515 27.7646 38.9539 27.8601L39.4723 42.9077C39.4747 43.0054 39.5556 43.08 39.6554 43.08H43.0895C43.1941 43.08 43.2774 42.9938 43.2726 42.8914L41.2869 0.409775C41.2821 0.314316 41.2012 0.237483 41.1037 0.237483M38.7137 24.4212H37.03C36.9254 24.4212 36.8421 24.3374 36.8469 24.2349L37.6887 3.93477C37.6935 3.83931 37.7743 3.76248 37.8718 3.76248C37.9693 3.76248 38.0502 3.83931 38.055 3.93477L38.8968 24.2349C38.9016 24.3374 38.8183 24.4212 38.7137 24.4212Z" fill="white"/>
<path d="M53.734 0.239812H45.0538C44.6805 0.239812 44.3784 0.535502 44.3784 0.90104V3.39927C44.3784 3.76481 44.6805 4.0605 45.0538 4.0605H49.9837V39.0101C49.9837 39.8157 49.6103 40.0532 49.149 40.0532C48.6876 40.0532 48.3142 39.8134 48.3142 39.0101V10.6309C48.3142 10.5331 48.2334 10.4516 48.1311 10.4516H44.5639C44.4617 10.4516 44.3808 10.5331 44.3808 10.6309V39.0311C44.3808 42.2511 46.2928 43.3174 49.1514 43.3174C52.0099 43.3174 53.9219 42.2511 53.9219 39.0311V0.419088C53.9219 0.318973 53.841 0.239812 53.7388 0.239812" fill="white"/>
<path d="M59.3536 3.50172H61.7555C61.8577 3.50172 61.9386 3.42023 61.9386 3.32244V0.419088C61.9386 0.321301 61.8554 0.239812 61.7555 0.239812H55.4177C55.3155 0.239812 55.2346 0.321301 55.2346 0.419088V42.8984C55.2346 42.9961 55.3155 43.0776 55.4177 43.0776H61.7555C61.8577 43.0776 61.9386 42.9961 61.9386 42.8984V39.995C61.9386 39.8972 61.8554 39.8157 61.7555 39.8157H59.3536C59.2513 39.8157 59.1704 39.7366 59.1704 39.6364V22.8613C59.1704 22.7635 59.2513 22.682 59.3536 22.682H61.6913C61.7912 22.682 61.8744 22.6005 61.8744 22.5027V19.6413C61.8744 19.5435 61.7912 19.462 61.6913 19.462H59.3536C59.2513 19.462 59.1704 19.3828 59.1704 19.2827V3.68099C59.1704 3.58088 59.2513 3.50172 59.3536 3.50172Z" fill="white"/>
</svg>
