<svg width="99" height="33" viewBox="0 0 99 33" fill="none" xmlns="http://www.w3.org/2000/svg">
<path d="M16.0809 26.3817L7.67575 16.5849H6.3317V26.3817H0.00012207V0.333069H6.3317V10.6751H7.25219L16.0044 0.333069H23.6036L12.6666 13.3977L24.3712 26.3817H16.0809Z" fill="white"/>
<path d="M26.7874 26.3806V6.87079H32.9279V26.3871L26.7874 26.3806Z" fill="white"/>
<path d="M59.2205 16.6212C59.2205 22.802 54.9208 26.96 49.8187 26.96C47.3216 26.96 45.3279 26.1826 43.831 24.8245V32.9988H37.6872V6.86948H43.8342V8.41789C45.3311 7.05657 47.3375 6.27917 49.8218 6.27917C54.9208 6.27917 59.2205 10.4791 59.2205 16.6212ZM53.1946 16.6212C53.1946 13.6276 51.2359 11.5663 48.551 11.5663C46.0636 11.5663 43.8342 13.6438 43.8342 16.6212C43.8342 19.5986 46.0636 21.6729 48.5542 21.6729C51.2359 21.6729 53.1946 19.6535 53.1946 16.6212Z" fill="white"/>
<path d="M81.2883 18.2155H67.166C67.663 20.5477 69.2368 21.9865 71.3064 21.9865C72.7275 21.9865 74.3777 21.6348 75.4158 19.7284L80.8644 20.8542C79.2154 24.9768 75.7213 26.9575 71.3097 26.9575C65.746 26.9575 61.1406 22.7994 61.1406 16.6348C61.1406 10.4702 65.746 6.29279 71.3485 6.29279C76.7982 6.29279 81.1743 10.2574 81.2883 16.6348V18.2155ZM67.2745 14.4058H75.2177C74.6411 12.3057 73.106 11.3347 71.3418 11.3347C70.4276 11.3317 69.5378 11.6297 68.8051 12.1835C68.0725 12.7374 67.5379 13.5173 67.2811 14.4058H67.2745Z" fill="white"/>
<path d="M98.6365 6.74803L98.3686 12.9674H97.2541C92.9577 12.9674 90.6169 15.2256 90.6169 20.2772V26.3805H84.4732V6.87067H90.6169V10.5965C91.9959 8.26416 94.1198 6.59323 97.2541 6.59323C97.7201 6.5828 98.1849 6.63481 98.6365 6.74803Z" fill="white"/>
<path d="M30.1957 4.41942L33.7629 0.806467C33.8281 0.74136 33.8729 0.658171 33.8917 0.567361C33.9104 0.476539 33.9024 0.382142 33.8683 0.295995C33.8343 0.209847 33.7758 0.135796 33.7005 0.0831432C33.625 0.0304795 33.5359 0.00155816 33.4444 0H26.3165C26.2255 0.00301543 26.1375 0.032789 26.063 0.0856768C25.9885 0.138565 25.9309 0.212291 25.8971 0.297833C25.8633 0.383375 25.8548 0.477032 25.8728 0.567361C25.8907 0.657689 25.9342 0.740777 25.998 0.806467L29.5651 4.41942C29.6514 4.49901 29.7637 4.54306 29.8804 4.54306C29.997 4.54306 30.1095 4.49901 30.1957 4.41942Z" fill="white"/>
</svg>
