<svg width="121" height="26" viewBox="0 0 121 26" fill="none" xmlns="http://www.w3.org/2000/svg">
<g clip-path="url(#clip0_1_2)">
<path d="M31.061 24.8985C29.1342 24.8985 27.5727 23.337 27.5727 21.4102V12.2715C27.5727 9.63873 26.9476 7.22902 24.1359 7.22902C21.3241 7.22902 20.6549 9.63873 20.6549 12.2715V21.6676C20.6549 23.4522 19.2086 24.8985 17.424 24.8985H17.1298C15.2815 24.8985 13.7813 23.4008 13.7813 21.55V12.2715C13.7813 9.63873 13.1562 7.22902 10.3444 7.22902C7.5327 7.22902 6.86347 9.63873 6.86347 12.2715V21.7779C6.86347 23.5013 5.46618 24.8985 3.74287 24.8985H3.29672C1.47044 24.8985 -0.0101929 23.4179 -0.0101929 21.5916V10.7982C-0.000387362 4.64037 3.52469 -9.15527e-05 10.2611 -9.15527e-05C12.6732 -9.15527e-05 14.7348 0.764738 16.392 2.02229C16.9019 2.40961 17.6177 2.40226 18.1226 2.00759C19.7136 0.757384 21.7433 -9.15527e-05 24.1825 -9.15527e-05C30.9213 -9.15527e-05 34.4439 4.64037 34.4439 10.7982V21.5156C34.4439 23.3836 32.929 24.8985 31.061 24.8985Z" fill="white"/>
<path d="M48.1426 25.433C41.4037 25.433 37.3884 20.7926 37.3884 14.6347V3.9271C37.3884 2.02973 38.9254 0.490265 40.8252 0.490265C42.7226 0.490265 44.262 2.02728 44.262 3.9271V14.0562C44.262 16.689 45.3333 18.6525 48.145 18.6525C50.9567 18.6525 52.1604 16.689 52.1604 14.0562V3.9271C52.1604 2.02973 53.6974 0.490265 55.5972 0.490265C57.4946 0.490265 59.034 2.02728 59.034 3.9271V14.6347C59.034 20.7926 56.0433 25.433 48.1475 25.433H48.1426Z" fill="white"/>
<path d="M92.6521 24.8985C90.9362 24.8985 89.5462 23.5086 89.5462 21.7927V12.2715C89.5462 9.63873 88.9211 7.22902 86.1094 7.22902C83.2977 7.22902 82.6285 9.63873 82.6285 12.2715V21.6872C82.6285 23.462 81.1895 24.8985 79.4172 24.8985H79.0691C77.2403 24.8985 75.7597 23.4155 75.7597 21.5892V12.2715C75.7597 9.63873 75.1346 7.22902 72.3229 7.22902C69.5111 7.22902 68.8419 9.63873 68.8419 12.2715V21.8417C68.8419 23.5307 67.474 24.8985 65.785 24.8985C63.6793 24.8985 61.9707 23.1899 61.9707 21.0842V10.7982C61.9707 4.64037 65.4958 -9.15527e-05 72.2322 -9.15527e-05C74.6443 -9.15527e-05 76.7059 0.764738 78.3631 2.02229C78.873 2.40961 79.5888 2.40226 80.0937 2.00759C81.6847 0.757384 83.7144 -9.15527e-05 86.1535 -9.15527e-05C92.8924 -9.15527e-05 96.415 4.64037 96.415 10.7982V21.7534C96.415 23.4915 95.0079 24.8985 93.2699 24.8985H92.6497H92.6521Z" fill="white"/>
<path d="M110.113 25.433C103.375 25.433 99.3592 20.7926 99.3592 14.6347V3.62067C99.3592 1.89245 100.761 0.490265 102.49 0.490265H103.1C104.828 0.490265 106.23 1.89245 106.23 3.62067V14.0537C106.23 16.6865 107.302 18.6501 110.113 18.6501C112.925 18.6501 114.129 16.6865 114.129 14.0537V3.62067C114.129 1.89245 115.531 0.490265 117.259 0.490265H117.87C119.598 0.490265 121 1.89245 121 3.62067V14.6347C121 20.7926 118.009 25.433 110.113 25.433Z" fill="white"/>
</g>
<defs>
<clipPath id="clip0_1_2">
<rect width="121" height="25.433" fill="white"/>
</clipPath>
</defs>
</svg>
