<svg width="84" height="29" viewBox="0 0 84 29" fill="none" xmlns="http://www.w3.org/2000/svg">
<g clip-path="url(#clip0_0_18)">
<path d="M6.35987 11.6904C6.09053 12.0092 5.84984 12.3587 5.63468 12.7298C5.26635 13.3704 4.98502 14.082 4.79852 14.8317C4.7063 15.1968 4.64014 15.575 4.59534 15.9717C4.55522 16.3343 4.53595 16.7356 4.53595 17.1801V28.7032H0.00140381V5.37744H4.53647V7.32653C4.57919 7.29686 4.89125 7.0575 4.91417 7.0575C5.41274 6.71304 5.92746 6.42138 6.45469 6.18655C8.50732 5.26078 10.7063 5.15115 12.759 5.76012C14.7428 6.35048 16.5662 7.62071 17.9437 9.47878C18.3735 10.0601 18.7611 10.6987 19.094 11.3917C19.5217 12.2782 19.8379 13.2065 20.0484 14.1524C20.2495 15.0485 20.3506 15.9768 20.3579 16.9091H20.3672V28.7077H15.8317V16.9045H15.841C15.8317 16.2981 15.7582 15.6755 15.6212 15.0555C15.4816 14.4284 15.2695 13.8084 14.9856 13.2181C14.773 12.776 14.5277 12.3702 14.2583 12.0077C13.4763 10.9542 12.4844 10.2451 11.431 9.93035C10.4432 9.63617 9.37317 9.69551 8.3677 10.1471H8.35832C8.08429 10.2703 7.81026 10.4252 7.54352 10.6072C7.10173 10.9195 6.70475 11.282 6.35987 11.6904Z" fill="white"/>
<path d="M78.7513 9.76494V20.2798C78.7513 22.0579 79.2712 23.0455 80.0574 23.5514C81.0071 24.1629 82.4695 24.3268 84.0001 24.3268V28.7047C81.7109 28.7047 79.4103 28.3829 77.5583 27.1931C75.5411 25.8982 74.2136 23.7641 74.2136 20.2778V9.76544H71.0602V5.38753H74.2136V-0.00012207H78.7492V5.38502H84.0001V9.76494H78.7513Z" fill="white"/>
<path d="M67.4684 8.37254C66.7193 7.64842 65.7992 7.11287 64.8615 6.64873C63.9764 6.21225 63.0339 5.88488 62.0613 5.68575C60.2551 5.31665 58.3775 5.40314 56.5937 5.84466C54.889 6.26605 53.2714 6.99671 51.8059 7.93203C51.4845 8.1372 51.1703 8.35242 50.864 8.57771C47.4944 11.0558 45.6262 14.2093 43.9783 16.9921C42.1164 20.1365 40.6451 22.6206 37.5641 23.6912C36.904 23.9205 36.208 24.0694 35.4818 24.1413C35.474 24.1433 35.4662 24.1443 35.4583 24.1463C35.2062 24.2086 34.8973 24.1905 34.6378 24.1966C34.3502 24.2031 34.0621 24.1981 33.7751 24.1825C33.3937 24.1619 33.0145 24.1151 32.6368 24.0603C32.1731 23.9934 31.7537 23.9079 31.3322 23.7038C31.1181 23.6002 30.9097 23.4845 30.7092 23.3583C30.2945 23.0978 29.911 22.7911 29.5651 22.4496C29.214 22.1032 28.9019 21.7205 28.631 21.3127C28.5185 21.1412 28.4059 20.9551 28.3007 20.7661C27.8652 19.9635 27.5854 19.1046 27.4546 18.2357C27.8396 18.3865 28.2278 18.5198 28.6091 18.6354C30.2939 19.1504 32.0402 19.3993 33.7068 19.4169C35.3844 19.438 37.7986 19.1574 39.7303 18.2709C41.4334 17.4859 42.8202 16.2453 43.2995 14.3631C43.5975 13.1925 43.4881 11.966 43.0635 10.8376C42.6426 9.72322 41.9054 8.69286 40.9577 7.90438C39.1786 6.4325 37.0218 5.57009 34.7816 5.40566C32.6065 5.24776 30.3627 5.74911 28.3403 6.99671C25.7005 8.61944 23.9324 11.2057 23.2098 14.076C22.4945 16.9076 22.7992 20.0339 24.2918 22.785C24.4554 23.0792 24.6294 23.3704 24.8112 23.6575C25.8751 25.2742 27.3583 26.6264 29.1181 27.5175C29.7141 27.8192 30.3731 28.0802 31.0066 28.2939C32.0574 28.6484 33.2067 28.6866 34.3106 28.6866C34.345 28.6866 34.3805 28.6891 34.4148 28.6891C36.0679 28.6891 37.648 28.4297 39.139 27.9117C43.8309 26.2809 45.9575 22.6905 48.0138 19.2183C49.5121 16.6879 51.0615 14.072 53.6804 12.1465C56.4275 10.127 61.2329 8.31572 64.0456 11.2072C64.7573 11.9388 65.1381 12.9053 65.1381 13.908V15.9874C64.6041 15.7525 64.0373 15.5519 63.4512 15.3809C61.7174 14.8997 59.7523 14.7378 57.8414 14.9434C57.3288 14.9982 56.8047 15.0847 56.2754 15.1989C55.7299 15.3196 55.2245 15.4589 54.7682 15.6163C53.6439 16.004 52.6728 16.5194 51.8841 17.1233C50.9797 17.8077 50.2993 18.6078 49.8695 19.4697C49.695 19.8207 49.56 20.1762 49.4683 20.5297V20.5413C49.3761 20.8993 49.324 21.278 49.3146 21.6652L49.3053 21.7155V21.8477L49.3172 21.8915C49.3266 22.3541 49.3975 22.8102 49.5319 23.2477C49.6595 23.6651 49.8486 24.0844 50.0987 24.4948C50.2357 24.7206 50.3727 24.9237 50.5097 25.0902C50.6655 25.2933 50.8239 25.4754 50.9776 25.6348C52.416 27.1257 54.639 28.1154 57.0672 28.5076C59.3845 28.8792 61.9498 28.7193 64.2051 27.9374C64.5098 27.8328 64.8219 27.7096 65.136 27.5683V28.7057H69.6737V13.909C69.6737 11.9217 68.9772 9.86352 67.5211 8.42383C67.5039 8.40724 67.4872 8.39014 67.47 8.37355M30.7644 10.6731L30.768 10.6766C31.9371 9.9651 33.215 9.67093 34.4497 9.76194C35.7313 9.85648 36.9806 10.3614 38.0189 11.2197C38.3747 11.5174 38.6545 11.9066 38.8103 12.3235C38.9447 12.6705 38.9848 13.021 38.9082 13.3187C38.8066 13.722 38.3602 14.0549 37.7829 14.3209C36.5378 14.8886 34.8999 15.0676 33.7417 15.0571C32.5508 15.0465 31.2583 14.8574 29.9767 14.4647C29.3301 14.2651 28.6987 14.0232 28.0887 13.725C28.6659 12.4809 29.5734 11.4088 30.7644 10.6731ZM65.1345 21.8784C65.111 22.0353 65.0329 22.2088 64.9052 22.3868C64.6781 22.7131 64.3218 23.0229 63.8518 23.299C63.6935 23.3925 63.5117 23.4835 63.3132 23.575C63.1428 23.6525 62.9355 23.7344 62.6896 23.8189H62.6802C61.1543 24.3479 59.4012 24.4525 57.8096 24.1971H57.8002C56.3191 23.9602 55.0297 23.4287 54.2878 22.6583C54.1602 22.517 54.1034 22.4391 53.9924 22.2892C53.9409 22.2002 53.8982 22.1067 53.87 22.0157C53.8513 21.9538 53.8393 21.897 53.8393 21.8467L53.8346 21.7145L53.8606 21.5887C53.882 21.5113 53.9101 21.4359 53.9435 21.3655C54.0805 21.0914 54.3264 20.8138 54.6713 20.5539H54.6807C55.0917 20.2436 55.6325 19.9635 56.2915 19.7357C56.6411 19.617 56.9672 19.5235 57.2668 19.4576C57.6049 19.3847 57.9612 19.3254 58.3368 19.2866C59.6596 19.1453 61.0152 19.2575 62.2103 19.5879V19.5788C63.247 19.8659 64.1259 20.3175 64.6854 20.8963C64.8599 21.0814 64.9855 21.2569 65.0589 21.4188C65.097 21.5028 65.1225 21.5852 65.1345 21.6601V21.8784Z" fill="white"/>
</g>
<defs>
<clipPath id="clip0_0_18">
<rect width="84" height="28.7089" fill="white"/>
</clipPath>
</defs>
</svg>
