<svg width="122" height="43" viewBox="0 0 122 43" fill="none" xmlns="http://www.w3.org/2000/svg">
<g clip-path="url(#clip0_0_25)">
<path d="M67.963 14.869C67.5193 14.5028 67.0269 14.1956 66.5041 13.8235H66.5102C66.7108 13.664 66.8749 13.534 67.033 13.3982C70.4552 10.5333 70.1391 5.71312 66.3704 3.29714C65.0392 2.44062 63.6046 1.85582 62.0485 1.5841C57.83 0.839814 53.6053 1.09382 49.3928 1.63136C48.2744 1.77313 47.8489 2.32839 47.8489 3.44482V26.6536C47.8489 27.8172 48.3656 28.3961 49.563 28.467C51.2833 28.5733 53.0096 28.6738 54.7359 28.7092C57.4227 28.7683 60.1094 28.6679 62.7476 28.0712C65.027 27.5514 67.0998 26.6772 68.6803 24.911C71.4157 21.857 71.1117 17.4622 67.963 14.869ZM55.0216 6.59917C56.7905 6.5401 58.5108 6.44559 60.2006 6.91815C60.6018 7.03039 61.0091 7.20169 61.3556 7.43206C62.4619 8.15863 62.5348 9.49953 61.5318 10.356C60.7355 11.0354 59.7508 11.2657 58.7418 11.4252C58.3406 11.4902 57.9272 11.5256 57.5199 11.5315C56.6993 11.5434 55.8848 11.5315 55.0216 11.5315V6.59917ZM62.1579 22.0283C61.5075 22.4773 60.7051 22.7726 59.9271 22.9558C59.0578 23.1625 58.1339 23.2038 57.2343 23.2629C56.5109 23.3102 55.7815 23.2747 55.0216 23.2747V16.9483L55.0156 16.9424C56.8574 16.9129 58.6627 16.8538 60.4073 17.3795C60.9908 17.5567 61.5865 17.793 62.0911 18.1297C63.5621 19.1044 63.6168 21.0242 62.1579 22.0283Z" fill="white"/>
<path d="M111.705 20.7222C110.586 23.0909 109.492 25.3592 108.459 27.657C108.045 28.5726 107.437 29.0098 106.398 28.9566C105.547 28.9093 104.69 28.9566 103.833 28.9448C102.392 28.9212 101.699 27.8106 102.35 26.5465C104.258 22.8369 106.173 19.1273 108.1 15.4295C108.294 15.0514 108.307 14.7679 108.112 14.3839C106.276 10.8102 104.501 7.2128 102.623 3.65676C101.967 2.41628 102.696 1.02222 104.246 1.14627C105.097 1.21715 105.954 1.18171 106.811 1.14627C107.735 1.11083 108.301 1.51251 108.677 2.31586C109.693 4.48375 110.75 6.63981 111.838 8.8963C111.96 8.67183 112.045 8.52416 112.124 8.36467C113.139 6.32674 114.166 4.29472 115.163 2.24498C115.534 1.48297 116.093 1.11673 116.969 1.14627C117.874 1.1699 118.786 1.14627 119.698 1.15218C121.132 1.16399 121.844 2.29814 121.181 3.54453C119.285 7.10647 117.388 10.6684 115.473 14.2185C115.285 14.5789 115.267 14.8447 115.461 15.2168C117.418 18.9619 119.358 22.7129 121.303 26.4638C122.02 27.8461 121.339 28.933 119.74 28.9389C118.847 28.9389 117.959 28.9271 117.066 28.9389C116.215 28.9566 115.662 28.5963 115.297 27.8579C114.179 25.5837 113.036 23.3154 111.899 21.0471C111.863 20.9703 111.814 20.8994 111.705 20.7163" fill="white"/>
<path d="M26.6393 1.13477V7.25445H29.6603V1.13477H34.1038V16.812H29.6846V10.9345H26.6575V16.8179H22.1958V1.13477H26.6393Z" fill="white"/>
<path d="M36.4132 1.12393H45.3913C45.3062 2.41757 45.2211 3.68168 45.1299 4.99895H40.8627V7.32632H44.516V10.6992H40.8627V13.2983H45.3913C45.3001 14.5034 45.2211 15.6316 45.136 16.8071H36.4071V1.12393H36.4132Z" fill="white"/>
<path d="M20.8759 4.92848H17.8852V16.8134H13.4053V4.95802H10.1836C10.2748 3.66438 10.3538 2.42981 10.4389 1.14798H21.1373C21.0522 2.38255 20.9731 3.61712 20.8819 4.92848" fill="white"/>
<path d="M17.254 18.8921C18.4272 18.8921 19.5396 18.8803 20.658 18.9099C20.7735 18.9099 20.9559 19.1698 20.9802 19.3293C21.2537 20.8119 21.4969 22.2946 21.7522 23.7773C21.7704 23.9072 21.8251 24.0313 21.9467 24.1494C22.2385 22.4127 22.5302 20.6761 22.822 18.9217H26.4327C26.5482 22.1528 26.6637 25.384 26.7792 28.6565H24.2201V23.6709C24.1715 23.6709 24.1228 23.6591 24.0742 23.6532C23.7581 25.319 23.442 26.9907 23.1199 28.6742H20.5C20.1961 26.9966 19.8921 25.319 19.5943 23.6355H19.4666V28.6624H16.9075C17.023 25.4194 17.1324 22.1824 17.2479 18.8862" fill="white"/>
<path d="M27.948 18.893C29.1273 18.893 30.2458 18.8812 31.3642 18.9107C31.4736 18.9107 31.6499 19.1766 31.6803 19.336C31.9539 20.8364 32.197 22.3368 32.4584 23.8372C32.4766 23.9376 32.5131 24.0321 32.6468 24.1267C32.9386 22.3959 33.2304 20.6592 33.5221 18.9107H37.1328C37.2483 22.1596 37.3638 25.3849 37.4793 28.6573H34.9081V23.6718C34.8594 23.6718 34.8169 23.6659 34.7682 23.66C34.4522 25.3317 34.1361 26.9975 33.8139 28.681H31.194C30.8901 26.9916 30.5862 25.314 30.2822 23.6364H30.1485V28.6751H27.6016C27.7171 25.4321 27.8265 22.2069 27.942 18.8989" fill="white"/>
<path d="M13.0651 18.9194H15.8613V25.3758C15.8613 25.7184 15.8309 26.0669 15.7823 26.4095C15.6181 27.6323 14.8765 28.3707 13.673 28.6719C12.6761 28.92 11.667 28.92 10.658 28.6956C9.44834 28.4297 8.60341 27.7032 8.56086 26.51C8.46968 23.9936 8.53047 21.4713 8.53047 18.9194H11.3023V25.3522C11.3023 26.191 11.6306 26.5277 12.3661 26.3918C12.6031 26.3505 12.8584 26.1024 12.98 25.8779C13.0955 25.6653 13.0651 25.3699 13.0651 25.1159V18.9135V18.9194Z" fill="white"/>
<path d="M6.84757 19.2333C6.70776 20.0721 6.56795 20.8873 6.42206 21.7733C5.97225 21.6729 5.55282 21.5784 5.1334 21.4839C3.5408 21.1294 2.99981 21.4839 2.93294 23.061C2.89647 23.9176 2.93902 24.7918 3.07275 25.6365C3.18824 26.3631 4.22769 26.7293 4.87202 26.3394C4.95712 26.2922 5.01183 26.1504 5.01791 26.0441C5.03614 25.7724 5.02398 25.4947 5.02398 25.1876C4.78692 25.158 4.58025 25.1344 4.3371 25.1049V23.2973H7.4068V28.6845C6.79894 28.6845 6.21539 28.7141 5.644 28.6668C5.4738 28.6491 5.32791 28.401 5.12732 28.2179C4.64103 28.6609 4.02101 28.8795 3.31589 28.844C1.83879 28.7791 0.8419 28.0643 0.410319 26.6053C-0.136756 24.7682 -0.142835 22.9134 0.428554 21.0822C0.908765 19.5405 1.96036 18.7903 3.61982 18.7253C4.71397 18.678 5.77773 18.8021 6.84149 19.2274" fill="white"/>
<path d="M45.3138 18.8847C45.2287 19.1387 45.1801 19.3159 45.1133 19.4931C44.4932 21.2416 43.8428 22.9783 43.2654 24.7386C43.0648 25.347 42.9857 26.0086 42.931 26.6584C42.8763 27.3081 42.9189 27.9697 42.9189 28.6609H40.147C40.147 27.8043 40.1592 26.9596 40.141 26.1208C40.141 25.8137 40.0862 25.5006 39.989 25.2111C39.3325 23.2914 38.6578 21.3834 37.9891 19.4695C37.9344 19.31 37.8858 19.1446 37.8068 18.8965C38.7915 18.8965 39.7215 18.8847 40.6576 18.9142C40.7549 18.9142 40.8947 19.1328 40.9251 19.2746C41.1318 20.0957 41.3141 20.9226 41.5086 21.7496C41.533 21.8382 41.5633 21.9327 41.7032 22.0273C41.8977 21.1648 42.1104 20.3024 42.2685 19.4341C42.3475 19.0206 42.4995 18.8611 42.9614 18.8847C43.7213 18.9261 44.4811 18.8965 45.3138 18.8965" fill="white"/>
<path d="M87.3231 0.00720604C78.6975 0.001299 71.774 6.7235 71.774 15.0465C71.774 23.3695 78.6915 30.0858 87.2684 30.0858C95.8453 30.0858 102.763 23.3754 102.775 15.0997C102.787 6.76485 95.8757 0.0131131 87.3231 0.00720604ZM93.7725 23.4109C93.5354 24.5793 92.6735 25.1641 91.0602 25.1594H91.062C88.4792 24.7169 85.6946 25.118 82.9228 25.0708C81.4274 25.053 80.5703 24.1729 80.698 22.7138C80.7709 21.8691 80.9655 21.0658 81.6767 20.4337C81.9441 20.1915 82.0353 19.7308 82.1325 19.3527C82.2237 18.9865 82.2237 18.5966 82.2541 18.2186C82.2967 17.7283 82.2055 17.3089 81.8712 16.8777C81.0688 15.8499 81.1843 14.509 82.0535 13.5048C82.4547 13.044 82.4061 12.5065 82.3514 11.969C82.2298 10.7816 82.1022 9.59432 81.9502 8.41292C81.9259 8.22389 81.8043 8.00533 81.6523 7.88128C80.9959 7.32602 80.8439 6.23322 81.3666 5.51847C81.8225 4.88642 82.6918 4.72693 83.4516 5.22902C83.944 5.55391 84.406 5.58345 84.9105 5.40624C86.576 4.80372 88.2355 4.81553 89.9253 5.37079C90.2718 5.48303 90.7703 5.36489 91.1228 5.2054C91.907 4.84507 92.7397 4.93367 93.2625 5.53028C93.8825 6.23913 93.9372 7.06611 93.2686 7.72179C92.8795 8.10575 92.8552 8.49561 92.8187 8.96818C92.7336 10.1023 92.5878 11.2365 92.448 12.3706C92.3872 12.855 92.3872 13.3453 92.7823 13.6761C93.7245 14.4617 93.7184 15.6845 93.0801 16.606C92.454 17.5097 92.4358 18.449 92.6242 19.4295C92.7093 19.8844 92.9221 20.3451 93.1774 20.7409C93.7123 21.5738 93.967 22.4421 93.7725 23.4109Z" fill="white"/>
<path d="M35.1564 41.3786L33.8312 36.2572H32.81L31.3998 41.4495L29.868 36.2572H28.8407L30.7737 42.8376H31.8192L33.2051 37.7753L34.512 42.8376H35.5758L37.6729 36.2572H36.8098L35.1564 41.3786Z" fill="white"/>
<path d="M41.786 39.7542H44.3998V39.0689H41.786V36.9542H44.9044V36.2572H40.7223V42.8376H45.1171V42.1406H41.786V39.7542Z" fill="white"/>
<path d="M49.4651 36.2572H48.4014V42.8376H52.8327V42.1406H49.4651V36.2572Z" fill="white"/>
<path d="M57.0567 36.2572H55.9929V42.8376H60.4181V42.1406H57.0567V36.2572Z" fill="white"/>
<path d="M68.3878 41.3373L64.6252 36.2572H63.5797V42.8376H64.4914V37.7576L68.2602 42.8376H69.2996V36.2572H68.3878V41.3373Z" fill="white"/>
<path d="M74.362 39.7542H76.9758V39.0689H74.362V36.9542H77.4804V36.2572H73.2983V42.8376H77.6931V42.1406H74.362V39.7542Z" fill="white"/>
<path d="M83.3339 39.153L82.799 38.8872C82.331 38.6509 82.0149 38.4559 81.8386 38.2846C81.6684 38.1192 81.5772 37.9243 81.5772 37.6998C81.5772 37.4399 81.6927 37.2214 81.9358 37.0501C82.1729 36.8788 82.4768 36.7902 82.8476 36.7902C83.2367 36.7902 83.8202 36.926 84.6104 37.1977V36.3412C83.9722 36.1758 83.3643 36.0872 82.7869 36.0872C82.1364 36.0872 81.6076 36.2526 81.1882 36.5775C80.7688 36.9083 80.5621 37.3218 80.5621 37.8357C80.5621 38.2078 80.6897 38.5386 80.9511 38.8222C81.2125 39.1057 81.6623 39.407 82.3006 39.726L82.8172 39.9859C83.2671 40.2103 83.571 40.4112 83.7412 40.5884C83.9053 40.7715 83.9904 40.9901 83.9904 41.2441C83.9904 41.5571 83.8628 41.8111 83.6075 42.0002C83.3522 42.1951 83.0178 42.2896 82.6045 42.2896C82.0574 42.2896 81.3645 42.1183 80.5195 41.7757V42.7031C81.3037 42.898 81.948 42.9925 82.4525 42.9925C83.2428 42.9925 83.881 42.8212 84.3551 42.4727C84.8353 42.1242 85.0724 41.6635 85.0724 41.0964C85.0724 40.6947 84.9448 40.3462 84.6895 40.0627C84.4342 39.7732 83.9843 39.472 83.3339 39.1471" fill="white"/>
<path d="M92.3314 40.0674C92.0761 39.778 91.6262 39.4767 90.9758 39.1518L90.4409 38.886C89.9789 38.6497 89.6568 38.4489 89.4805 38.2835C89.3042 38.1122 89.2191 37.9232 89.2191 37.6987C89.2191 37.4388 89.3407 37.2202 89.5778 37.0489C89.8148 36.8776 90.1188 36.789 90.4895 36.789C90.8786 36.789 91.4621 36.9249 92.2523 37.1966V36.346C91.6141 36.1747 91.0062 36.092 90.4288 36.092C89.7844 36.092 89.2495 36.2574 88.8301 36.5823C88.4107 36.9071 88.204 37.3266 88.204 37.8405C88.204 38.2126 88.3316 38.5434 88.593 38.8269C88.8544 39.1105 89.3042 39.4117 89.9425 39.7307L90.4592 39.9906C90.909 40.2151 91.2129 40.4159 91.3831 40.5931C91.5533 40.7763 91.6323 40.9948 91.6323 41.2488C91.6323 41.5619 91.5047 41.8159 91.2494 42.0049C90.9941 42.1999 90.6597 42.2944 90.2464 42.2944C89.6993 42.2944 89.0064 42.1231 88.1614 41.7805V42.702C88.9395 42.8969 89.5838 42.9914 90.0944 42.9914C90.8847 42.9914 91.5229 42.8201 91.997 42.4716C92.4773 42.1231 92.7143 41.6623 92.7143 41.0952C92.7143 40.6936 92.5867 40.345 92.3314 40.0615" fill="white"/>
<path d="M22.7249 39.9679H6.76245C6.52539 39.9679 6.33087 39.7789 6.33087 39.5485V39.4304C6.33087 39.2 6.52539 39.011 6.76245 39.011H22.7188C22.9559 39.011 23.1504 39.2 23.1504 39.4304V39.5485C23.1504 39.7789 22.9559 39.9679 22.7188 39.9679" fill="white"/>
<path d="M114.487 39.9679H98.5309C98.2938 39.9679 98.0993 39.7789 98.0993 39.5485V39.4304C98.0993 39.2 98.2938 39.011 98.5309 39.011H114.487C114.724 39.011 114.919 39.2 114.919 39.4304V39.5485C114.919 39.7789 114.724 39.9679 114.487 39.9679Z" fill="white"/>
</g>
<defs>
<clipPath id="clip0_0_25">
<rect width="121.586" height="43" fill="white"/>
</clipPath>
</defs>
</svg>
